<?xml version="1.0" encoding="UTF-8"?>
<svg width="1440px" height="800px" viewBox="0 0 1440 800" version="1.1" xmlns="http://www.w3.org/2000/svg" xmlns:xlink="http://www.w3.org/1999/xlink">
    <title>Wave Pattern</title>
    <g stroke="none" stroke-width="1" fill="none" fill-rule="evenodd">
        <path d="M0,160 C320,240 480,0 720,0 C960,0 1120,240 1440,160 L1440,800 L0,800 L0,160 Z" fill="#FFFFFF" opacity="0.1"></path>
        <path d="M0,320 C320,400 480,160 720,160 C960,160 1120,400 1440,320 L1440,800 L0,800 L0,320 Z" fill="#FFFFFF" opacity="0.1"></path>
        <path d="M0,480 C320,560 480,320 720,320 C960,320 1120,560 1440,480 L1440,800 L0,800 L0,480 Z" fill="#FFFFFF" opacity="0.1"></path>
        <path d="M0,640 C320,720 480,480 720,480 C960,480 1120,720 1440,640 L1440,800 L0,800 L0,640 Z" fill="#FFFFFF" opacity="0.1"></path>
    </g>
</svg>